<?xml version="1.0" encoding="utf-8"?>
<!-- Generator: Adobe Illustrator 21.0.0, SVG Export Plug-In . SVG Version: 6.00 Build 0)  -->
<svg version="1.1" id="Layer_1" xmlns="http://www.w3.org/2000/svg" xmlns:xlink="http://www.w3.org/1999/xlink" x="0px" y="0px"
	 viewBox="0 0 685 73" style="enable-background:new 0 0 685 73;" xml:space="preserve">
<style type="text/css">
	.st0{
		fill:#FFFFFF;
		stroke-width: 2;
		stroke:#FFF;
	}
</style>
<g>
	<path class="st0" d="M26.3,11.7h4.2L48.7,55h-4.5l-4.7-11.5H16.6L11.7,55H7.4L26.3,11.7z M28.2,16.1L18.1,39.8H38L28.2,16.1z"/>
	<path class="st0" d="M72.1,11.7h4.2L87,50h0.1l10.9-38.3h5.1L114.2,50h0.1l10.8-38.3h4.2L116.6,55h-5l-10.9-38.5h-0.1L89.7,55h-5
		L72.1,11.7z"/>
	<path class="st0" d="M161.6,47c2.1,3.6,5.6,5.4,9.9,5.4c5.4,0,9.7-3.3,9.7-8.5c0-12.1-22.3-5-22.3-21.5c0-7.7,6.6-11.9,13.9-11.9
		c4.7,0,8.9,1.6,11.8,5.4l-3.5,2.5c-2-2.8-4.7-4.3-8.4-4.3c-5.2,0-9.7,2.7-9.7,8.2c0,13,22.3,5.2,22.3,21.5
		c0,7.8-6.4,12.2-13.5,12.2c-5.7,0-10.7-1.8-14.1-6.5L161.6,47z"/>
	<path class="st0" d="M298.6,52.2c-5,2.9-10.5,3.9-16.1,3.9c-13.2,0-22.4-9.5-22.4-22.8s9.2-22.8,22.4-22.8c6.4,0,11.6,2,15.6,6
		l-2.9,3.1c-2.6-3.2-8-5.4-12.7-5.4c-11.3,0-18.3,8.3-18.3,19.1s7,19.1,18.3,19.1c4.6,0,8.8-0.6,12.1-2.6V35.3h-10.4v-3.7h14.4V52.2
		z"/>
	<path class="st0" d="M355.7,43.1c0,5.5,0.1,8.6,0.6,11.9h-3.4c-0.2-1.4-0.4-3-0.4-4.6h-0.1c-2.1,3.6-5.1,5.3-9.9,5.3
		c-4.8,0-10-2.4-10-8.4c0-8.6,10.1-9.5,15.7-9.5h4.3v-1.7c0-4.9-3.4-6.8-8-6.8c-3.3,0-6.1,1-8.6,3.2l-2.1-2.5c2.7-2.6,7.1-4,10.8-4
		c6.8,0,11.3,3.1,11.3,10.2V43.1z M348.4,40.8c-6.1,0-12.2,1.5-12.2,6.4c0,3.5,3.4,5.3,6.4,5.3c7.8,0,9.8-5,9.8-9.7v-1.9H348.4z"/>
	<path class="st0" d="M390.6,34.7c0-2.1-0.3-6.5-0.3-8h3.7c0.1,2.1,0.1,4.4,0.2,5h0.2c1.5-3.1,5.1-5.7,9.7-5.7
		c3.7,0,7.2,1.8,8.5,6.1c1.8-4.2,5.7-6.1,9.6-6.1c8.8,0,10.8,6,10.8,12.2V55h-3.7V38.4c0-4.6-1.3-9.1-7.1-9.1
		c-6.8,0-8.6,5.7-8.6,9.8V55H410V38c0-5.2-1.9-8.7-5.9-8.7c-5.4,0-9.8,3.8-9.8,11.6V55h-3.7V34.7z"/>
	<path class="st0" d="M492.9,49.7c-2.9,4.3-7.2,6.1-12.2,6.1c-8.6,0-14.3-6.2-14.3-14.9c0-8.4,5.9-14.8,14.1-14.8
		c8.7,0,13.3,6.7,13.3,13.2v2.6H470c0,3.1,2.1,10.6,10.7,10.6c3.7,0,7.6-2,9.5-5L492.9,49.7z M490.1,38.5c0-5-4.3-9.2-9.8-9.2
		c-8,0-10.3,7.7-10.3,9.2H490.1z"/>
	<path class="st0" d="M527.7,11.7h13.4c22.5,0,23.4,18.5,23.4,21.6c0,3.2-0.9,21.6-23.4,21.6h-13.4V11.7z M531.8,51.3h8.3
		c11.5,0,20.4-5.6,20.4-18s-8.9-18-20.4-18h-8.3V51.3z"/>
	<path class="st0" d="M618.9,43.1c0,5.5,0.1,8.6,0.6,11.9h-3.4c-0.2-1.4-0.4-3-0.4-4.6h-0.1c-2.1,3.6-5.1,5.3-9.9,5.3
		c-4.8,0-10-2.4-10-8.4c0-8.6,10.1-9.5,15.7-9.5h4.3v-1.7c0-4.9-3.4-6.8-8-6.8c-3.3,0-6.1,1-8.6,3.2l-2.1-2.5c2.7-2.6,7.1-4,10.8-4
		c6.8,0,11.3,3.1,11.3,10.2V43.1z M611.6,40.8c-6.1,0-12.2,1.5-12.2,6.4c0,3.5,3.4,5.3,6.4,5.3c7.8,0,9.8-5,9.8-9.7v-1.9H611.6z"/>
	<path class="st0" d="M661.1,63.7c-1.4,3.6-3.7,5.9-7.8,5.9c-1.2,0-2.4-0.2-3.6-0.6l0.4-3.4c1,0.3,2.2,0.7,3.3,0.7
		c2.7,0,3.9-2.5,4.7-4.7l2.6-6.5l-11.5-28.4h4.1l9.4,23.8l9.1-23.8h3.9L661.1,63.7z"/>
</g>
</svg>
